<?xml version="1.0" encoding="utf-8"?>
<!-- Generator: Adobe Illustrator 22.0.0, SVG Export Plug-In . SVG Version: 6.00 Build 0)  -->
<svg version="1.1" id="btn-web-des" xmlns="http://www.w3.org/2000/svg" xmlns:xlink="http://www.w3.org/1999/xlink" x="0px"
	 y="0px" viewBox="0 0 156.2 55.3" style="enable-background:new 0 0 156.2 55.3;" xml:space="preserve">
<style type="text/css">
	.st0{fill:url(#SVGID_1_);}
	.st1{opacity:0.27;}
	.st2{fill:#010101;}
	.st3{fill:#020202;}
	.st4{fill:#030303;}
	.st5{fill:#040404;}
	.st6{fill:#050505;}
	.st7{fill:#060606;}
	.st8{fill:#070707;}
	.st9{fill:#080808;}
	.st10{fill:#090909;}
	.st11{fill:#0A0A0A;}
	.st12{fill:#0B0B0B;}
	.st13{fill:#0C0C0C;}
	.st14{fill:#0D0D0D;}
	.st15{fill:#0E0E0E;}
	.st16{fill:#0F0F0F;}
	.st17{fill:#101010;}
	.st18{fill:#111111;}
	.st19{fill:#121212;}
	.st20{fill:#131313;}
	.st21{fill:#141414;}
	.st22{fill:#151515;}
	.st23{fill:#161616;}
	.st24{fill:#171717;}
	.st25{fill:#181818;}
	.st26{fill:#191919;}
	.st27{fill:#1A1A1A;}
	.st28{fill:#1B1B1B;}
	.st29{fill:#1C1C1C;}
	.st30{fill:#1D1D1D;}
	.st31{fill:#1E1E1E;}
	.st32{fill:#1F1F1F;}
	.st33{fill:#202020;}
	.st34{fill:#212121;}
	.st35{fill:#222222;}
	.st36{fill:#232323;}
	.st37{fill:#242424;}
	.st38{fill:#252525;}
	.st39{fill:#262626;}
	.st40{fill:#272727;}
	.st41{fill:#282828;}
	.st42{fill:#292929;}
	.st43{fill:#2A2A2A;}
	.st44{fill:#2B2B2B;}
	.st45{fill:#2C2C2C;}
	.st46{fill:#2D2D2D;}
	.st47{fill:#2E2E2E;}
	.st48{fill:#2F2F2F;}
	.st49{fill:#303030;}
	.st50{fill:#313131;}
	.st51{fill:#323232;}
	.st52{fill:#333333;}
	.st53{fill:#343434;}
	.st54{fill:#353535;}
	.st55{fill:#363636;}
	.st56{fill:#373737;}
	.st57{fill:#383838;}
	.st58{fill:#393939;}
	.st59{fill:#3A3A3A;}
	.st60{opacity:0.69;fill:url(#SVGID_2_);}
</style>
<g>
	<linearGradient id="SVGID_1_" gradientUnits="userSpaceOnUse" x1="113.8486" y1="-15.537" x2="4.7574" y2="114.8056">
		<stop  offset="0" style="stop-color:#FF431D"/>
		<stop  offset="1" style="stop-color:#002BFF"/>
	</linearGradient>
	<path class="st0" d="M128.2,54.4H27.6c-14.9,0-26.9-12.1-26.9-26.9l0,0c0-14.9,12.1-26.9,26.9-26.9h100.6
		c14.9,0,26.9,12.1,26.9,26.9l0,0C155.1,42.3,143,54.4,128.2,54.4z"/>
	<g class="st1">
		<path d="M129,55.3H27.2C12.2,55.3,0,42.9,0,27.7l0,0C0,12.4,12.2,0,27.2,0H129c15,0,27.2,12.4,27.2,27.7l0,0
			C156.2,42.9,144,55.3,129,55.3z"/>
		<path class="st2" d="M128.8,55.2H27.4c-15,0-27.1-12.3-27.1-27.5l0,0c0-15.2,12.1-27.5,27.1-27.5h101.3c15,0,27.1,12.3,27.1,27.5
			l0,0C155.9,42.9,143.7,55.2,128.8,55.2z"/>
		<path class="st3" d="M128.5,55.1H27.7c-14.9,0-27-12.3-27-27.4l0,0c0-15.1,12.1-27.4,27-27.4h100.9c14.9,0,27,12.3,27,27.4l0,0
			C155.5,42.8,143.4,55.1,128.5,55.1z"/>
		<path class="st4" d="M128.3,55H27.9C13,55,1,42.8,1,27.7l0,0C1,12.6,13,0.4,27.9,0.4h100.4c14.8,0,26.9,12.2,26.9,27.3l0,0
			C155.2,42.8,143.2,55,128.3,55z"/>
		<path class="st5" d="M128.1,54.9h-100c-14.8,0-26.8-12.2-26.8-27.2l0,0c0-15,12-27.2,26.8-27.2h100c14.8,0,26.8,12.2,26.8,27.2
			l0,0C154.9,42.7,142.9,54.9,128.1,54.9z"/>
		<path class="st6" d="M127.9,54.7H28.3c-14.7,0-26.6-12.1-26.6-27.1l0,0c0-15,11.9-27.1,26.6-27.1h99.6c14.7,0,26.6,12.1,26.6,27.1
			l0,0C154.5,42.6,142.6,54.7,127.9,54.7z"/>
		<path class="st7" d="M127.7,54.6H28.5C13.9,54.6,2,42.6,2,27.7l0,0c0-14.9,11.9-27,26.5-27h99.1c14.7,0,26.5,12.1,26.5,27l0,0
			C154.2,42.6,142.3,54.6,127.7,54.6z"/>
		<path class="st8" d="M127.4,54.5H28.8c-14.6,0-26.4-12-26.4-26.8l0,0c0-14.8,11.8-26.8,26.4-26.8h98.7c14.6,0,26.4,12,26.4,26.8
			l0,0C153.9,42.5,142,54.5,127.4,54.5z"/>
		<path class="st9" d="M127.2,54.4H29c-14.5,0-26.3-12-26.3-26.7l0,0C2.7,12.9,14.5,0.9,29,0.9h98.3c14.5,0,26.3,12,26.3,26.7l0,0
			C153.5,42.4,141.7,54.4,127.2,54.4z"/>
		<path class="st10" d="M127,54.3H29.2C14.7,54.3,3,42.4,3,27.7l0,0C3,13,14.7,1.1,29.2,1.1H127c14.5,0,26.2,11.9,26.2,26.6l0,0
			C153.2,42.4,141.5,54.3,127,54.3z"/>
		<path class="st11" d="M126.8,54.1H29.4C15,54.1,3.4,42.3,3.4,27.7l0,0C3.4,13,15,1.2,29.4,1.2h97.4c14.4,0,26.1,11.9,26.1,26.5
			l0,0C152.8,42.3,141.2,54.1,126.8,54.1z"/>
		<path class="st12" d="M126.6,54H29.6C15.3,54,3.7,42.2,3.7,27.7l0,0c0-14.6,11.6-26.4,25.9-26.4h96.9c14.3,0,25.9,11.8,25.9,26.4
			l0,0C152.5,42.2,140.9,54,126.6,54z"/>
		<path class="st13" d="M126.4,53.9H29.8C15.6,53.9,4,42.2,4,27.7l0,0C4,13.2,15.6,1.4,29.8,1.4h96.5c14.3,0,25.8,11.7,25.8,26.2
			l0,0C152.2,42.2,140.6,53.9,126.4,53.9z"/>
		<path class="st14" d="M126.1,53.8H30.1c-14.2,0-25.7-11.7-25.7-26.1l0,0c0-14.4,11.5-26.1,25.7-26.1h96.1
			c14.2,0,25.7,11.7,25.7,26.1l0,0C151.8,42.1,140.3,53.8,126.1,53.8z"/>
		<path class="st15" d="M125.9,53.7H30.3c-14.1,0-25.6-11.6-25.6-26l0,0c0-14.4,11.5-26,25.6-26h95.6c14.1,0,25.6,11.6,25.6,26l0,0
			C151.5,42,140,53.7,125.9,53.7z"/>
		<path class="st16" d="M125.7,53.6H30.5C16.4,53.6,5,42,5,27.7l0,0C5,13.4,16.4,1.8,30.5,1.8h95.2c14.1,0,25.5,11.6,25.5,25.9l0,0
			C151.2,42,139.8,53.6,125.7,53.6z"/>
		<path class="st17" d="M125.5,53.4H30.7c-14,0-25.4-11.5-25.4-25.8l0,0c0-14.2,11.4-25.8,25.4-25.8h94.8c14,0,25.4,11.5,25.4,25.8
			l0,0C150.8,41.9,139.5,53.4,125.5,53.4z"/>
		<path class="st18" d="M125.3,53.3H30.9C17,53.3,5.7,41.8,5.7,27.7l0,0C5.7,13.5,17,2,30.9,2h94.3c13.9,0,25.2,11.5,25.2,25.6l0,0
			C150.5,41.8,139.2,53.3,125.3,53.3z"/>
		<path class="st19" d="M125,53.2H31.2C17.3,53.2,6,41.8,6,27.7l0,0C6,13.6,17.3,2.1,31.2,2.1H125c13.9,0,25.1,11.4,25.1,25.5l0,0
			C150.2,41.8,138.9,53.2,125,53.2z"/>
		<path class="st20" d="M124.8,53.1H31.4c-13.8,0-25-11.4-25-25.4l0,0c0-14,11.2-25.4,25-25.4h93.4c13.8,0,25,11.4,25,25.4l0,0
			C149.8,41.7,138.6,53.1,124.8,53.1z"/>
		<path class="st21" d="M124.6,53h-93C17.8,53,6.7,41.6,6.7,27.7l0,0c0-14,11.1-25.3,24.9-25.3h93c13.7,0,24.9,11.3,24.9,25.3l0,0
			C149.5,41.6,138.4,53,124.6,53z"/>
		<path class="st22" d="M124.4,52.8H31.8C18.1,52.8,7,41.6,7,27.7l0,0C7,13.8,18.1,2.5,31.8,2.5h92.6c13.7,0,24.8,11.3,24.8,25.2
			l0,0C149.2,41.6,138.1,52.8,124.4,52.8z"/>
		<path class="st23" d="M124.2,52.7H32c-13.6,0-24.7-11.2-24.7-25.1l0,0c0-13.8,11-25.1,24.7-25.1h92.1c13.6,0,24.7,11.2,24.7,25.1
			l0,0C148.8,41.5,137.8,52.7,124.2,52.7z"/>
		<path class="st24" d="M124,52.6H32.2c-13.6,0-24.5-11.2-24.5-24.9l0,0c0-13.8,11-24.9,24.5-24.9H124c13.6,0,24.5,11.2,24.5,24.9
			l0,0C148.5,41.4,137.5,52.6,124,52.6z"/>
		<path class="st25" d="M123.7,52.5H32.5C19,52.5,8,41.4,8,27.7l0,0C8,14,19,2.8,32.5,2.8h91.3c13.5,0,24.4,11.1,24.4,24.8l0,0
			C148.2,41.4,137.2,52.5,123.7,52.5z"/>
		<path class="st26" d="M123.5,52.4H32.7c-13.4,0-24.3-11.1-24.3-24.7l0,0C8.4,14,19.3,3,32.7,3h90.8c13.4,0,24.3,11.1,24.3,24.7
			l0,0C147.8,41.3,136.9,52.4,123.5,52.4z"/>
		<path class="st27" d="M123.3,52.2H32.9c-13.4,0-24.2-11-24.2-24.6l0,0c0-13.6,10.8-24.6,24.2-24.6h90.4c13.4,0,24.2,11,24.2,24.6
			l0,0C147.5,41.2,136.7,52.2,123.3,52.2z"/>
		<path class="st28" d="M123.1,52.1h-90C19.8,52.1,9,41.2,9,27.7l0,0C9,14.2,19.8,3.2,33.1,3.2h90c13.3,0,24.1,11,24.1,24.5l0,0
			C147.1,41.2,136.4,52.1,123.1,52.1z"/>
		<path class="st29" d="M122.9,52H33.3c-13.2,0-24-10.9-24-24.3l0,0c0-13.4,10.7-24.3,24-24.3h89.5c13.2,0,24,10.9,24,24.3l0,0
			C146.8,41.1,136.1,52,122.9,52z"/>
		<path class="st30" d="M122.6,51.9H33.6C20.4,51.9,9.7,41,9.7,27.7l0,0c0-13.4,10.7-24.2,23.8-24.2h89.1
			c13.2,0,23.8,10.8,23.8,24.2l0,0C146.5,41,135.8,51.9,122.6,51.9z"/>
		<path class="st30" d="M122.4,51.8H33.8c-13.1,0-23.7-10.8-23.7-24.1l0,0c0-13.3,10.6-24.1,23.7-24.1h88.6
			c13.1,0,23.7,10.8,23.7,24.1l0,0C146.1,41,135.5,51.8,122.4,51.8z"/>
		<path class="st31" d="M122.2,51.7H34c-13,0-23.6-10.7-23.6-24l0,0c0-13.2,10.6-24,23.6-24h88.2c13,0,23.6,10.7,23.6,24l0,0
			C145.8,40.9,135.2,51.7,122.2,51.7z"/>
		<path class="st32" d="M122,51.5H34.2c-13,0-23.5-10.7-23.5-23.9l0,0c0-13.2,10.5-23.9,23.5-23.9H122c13,0,23.5,10.7,23.5,23.9l0,0
			C145.5,40.8,135,51.5,122,51.5z"/>
		<path class="st33" d="M121.8,51.4H34.4c-12.9,0-23.4-10.6-23.4-23.7l0,0c0-13.1,10.5-23.7,23.4-23.7h87.3
			c12.9,0,23.4,10.6,23.4,23.7l0,0C145.1,40.8,134.7,51.4,121.8,51.4z"/>
		<path class="st34" d="M121.5,51.3H34.6c-12.8,0-23.3-10.6-23.3-23.6l0,0C11.4,14.6,21.8,4,34.6,4h86.9c12.8,0,23.3,10.6,23.3,23.6
			l0,0C144.8,40.7,134.4,51.3,121.5,51.3z"/>
		<path class="st35" d="M121.3,51.2H34.9c-12.8,0-23.1-10.5-23.1-23.5l0,0c0-13,10.4-23.5,23.1-23.5h86.5
			c12.8,0,23.1,10.5,23.1,23.5l0,0C144.5,40.7,134.1,51.2,121.3,51.2z"/>
		<path class="st36" d="M121.1,51.1h-86c-12.7,0-23-10.5-23-23.4l0,0c0-12.9,10.3-23.4,23-23.4h86c12.7,0,23,10.5,23,23.4l0,0
			C144.1,40.6,133.8,51.1,121.1,51.1z"/>
		<path class="st37" d="M120.9,50.9H35.3c-12.6,0-22.9-10.4-22.9-23.3l0,0c0-12.9,10.3-23.3,22.9-23.3h85.6
			c12.6,0,22.9,10.4,22.9,23.3l0,0C143.8,40.5,133.5,50.9,120.9,50.9z"/>
		<path class="st38" d="M120.7,50.8H35.5c-12.6,0-22.8-10.4-22.8-23.2l0,0c0-12.8,10.2-23.2,22.8-23.2h85.2
			c12.6,0,22.8,10.4,22.8,23.2l0,0C143.5,40.5,133.3,50.8,120.7,50.8z"/>
		<path class="st39" d="M120.5,50.7H35.7c-12.5,0-22.7-10.3-22.7-23l0,0c0-12.7,10.2-23,22.7-23h84.7c12.5,0,22.7,10.3,22.7,23l0,0
			C143.1,40.4,133,50.7,120.5,50.7z"/>
		<path class="st40" d="M120.2,50.6H36c-12.5,0-22.6-10.3-22.6-22.9l0,0C13.4,15,23.5,4.7,36,4.7h84.3c12.5,0,22.6,10.3,22.6,22.9
			l0,0C142.8,40.3,132.7,50.6,120.2,50.6z"/>
		<path class="st41" d="M120,50.5H36.2c-12.4,0-22.4-10.2-22.4-22.8l0,0c0-12.6,10-22.8,22.4-22.8H120c12.4,0,22.4,10.2,22.4,22.8
			l0,0C142.5,40.3,132.4,50.5,120,50.5z"/>
		<path class="st42" d="M119.8,50.3H36.4c-12.3,0-22.3-10.2-22.3-22.7l0,0C14.1,15.1,24.1,5,36.4,5h83.4c12.3,0,22.3,10.2,22.3,22.7
			l0,0C142.1,40.2,132.1,50.3,119.8,50.3z"/>
		<path class="st43" d="M119.6,50.2h-83c-12.3,0-22.2-10.1-22.2-22.6l0,0c0-12.5,9.9-22.6,22.2-22.6h83c12.3,0,22.2,10.1,22.2,22.6
			l0,0C141.8,40.1,131.8,50.2,119.6,50.2z"/>
		<path class="st44" d="M119.4,50.1H36.8c-12.2,0-22.1-10-22.1-22.4l0,0c0-12.4,9.9-22.4,22.1-22.4h82.5c12.2,0,22.1,10,22.1,22.4
			l0,0C141.5,40.1,131.6,50.1,119.4,50.1z"/>
		<path class="st45" d="M119.1,50H37.1c-12.1,0-22-10-22-22.3l0,0c0-12.3,9.8-22.3,22-22.3h82.1c12.1,0,22,10,22,22.3l0,0
			C141.1,40,131.3,50,119.1,50z"/>
		<path class="st46" d="M118.9,49.9H37.3c-12.1,0-21.9-9.9-21.9-22.2l0,0c0-12.3,9.8-22.2,21.9-22.2h81.7c12.1,0,21.9,9.9,21.9,22.2
			l0,0C140.8,39.9,131,49.9,118.9,49.9z"/>
		<path class="st47" d="M118.7,49.8H37.5c-12,0-21.7-9.9-21.7-22.1l0,0c0-12.2,9.7-22.1,21.7-22.1h81.2c12,0,21.7,9.9,21.7,22.1l0,0
			C140.4,39.9,130.7,49.8,118.7,49.8z"/>
		<path class="st48" d="M118.5,49.6H37.7c-11.9,0-21.6-9.8-21.6-22l0,0c0-12.1,9.7-22,21.6-22h80.8c11.9,0,21.6,9.8,21.6,22l0,0
			C140.1,39.8,130.4,49.6,118.5,49.6z"/>
		<path class="st49" d="M118.3,49.5H37.9c-11.9,0-21.5-9.8-21.5-21.9l0,0c0-12.1,9.6-21.9,21.5-21.9h80.4c11.9,0,21.5,9.8,21.5,21.9
			l0,0C139.8,39.7,130.2,49.5,118.3,49.5z"/>
		<path class="st50" d="M118.1,49.4H38.1c-11.8,0-21.4-9.7-21.4-21.7l0,0c0-12,9.6-21.7,21.4-21.7h79.9c11.8,0,21.4,9.7,21.4,21.7
			l0,0C139.4,39.7,129.9,49.4,118.1,49.4z"/>
		<path class="st51" d="M117.8,49.3H38.4c-11.7,0-21.3-9.7-21.3-21.6l0,0c0-11.9,9.5-21.6,21.3-21.6h79.5c11.7,0,21.3,9.7,21.3,21.6
			l0,0C139.1,39.6,129.6,49.3,117.8,49.3z"/>
		<path class="st52" d="M117.6,49.2h-79c-11.7,0-21.2-9.6-21.2-21.5l0,0c0-11.9,9.5-21.5,21.2-21.5h79c11.7,0,21.2,9.6,21.2,21.5
			l0,0C138.8,39.5,129.3,49.2,117.6,49.2z"/>
		<path class="st53" d="M117.4,49H38.8c-11.6,0-21-9.6-21-21.4l0,0c0-11.8,9.4-21.4,21-21.4h78.6c11.6,0,21,9.6,21,21.4l0,0
			C138.4,39.5,129,49,117.4,49z"/>
		<path class="st54" d="M117.2,48.9H39c-11.6,0-20.9-9.5-20.9-21.3l0,0c0-11.7,9.4-21.3,20.9-21.3h78.2c11.6,0,20.9,9.5,20.9,21.3
			l0,0C138.1,39.4,128.7,48.9,117.2,48.9z"/>
		<path class="st55" d="M117,48.8H39.2c-11.5,0-20.8-9.5-20.8-21.1l0,0c0-11.7,9.3-21.1,20.8-21.1H117c11.5,0,20.8,9.5,20.8,21.1
			l0,0C137.8,39.3,128.5,48.8,117,48.8z"/>
		<path class="st56" d="M116.7,48.7H39.5c-11.4,0-20.7-9.4-20.7-21l0,0c0-11.6,9.3-21,20.7-21h77.3c11.4,0,20.7,9.4,20.7,21l0,0
			C137.4,39.3,128.2,48.7,116.7,48.7z"/>
		<path class="st57" d="M116.5,48.6H39.7c-11.4,0-20.6-9.4-20.6-20.9l0,0c0-11.5,9.2-20.9,20.6-20.9h76.9c11.4,0,20.6,9.4,20.6,20.9
			l0,0C137.1,39.2,127.9,48.6,116.5,48.6z"/>
		<path class="st58" d="M116.3,48.4H39.9c-11.3,0-20.5-9.3-20.5-20.8l0,0c0-11.5,9.2-20.8,20.5-20.8h76.4c11.3,0,20.5,9.3,20.5,20.8
			l0,0C136.8,39.1,127.6,48.4,116.3,48.4z"/>
		<path class="st59" d="M116.1,48.3h-76c-11.2,0-20.3-9.3-20.3-20.7l0,0C19.8,16.3,28.9,7,40.1,7h76c11.2,0,20.3,9.3,20.3,20.7l0,0
			C136.4,39.1,127.3,48.3,116.1,48.3z"/>
	</g>
	
		<radialGradient id="SVGID_2_" cx="488.9404" cy="-123.0606" r="71.6327" gradientTransform="matrix(1.1033 0 0 1.1923 -454.5242 175.7135)" gradientUnits="userSpaceOnUse">
		<stop  offset="0" style="stop-color:#FFFFFF;stop-opacity:0"/>
		<stop  offset="0.7207" style="stop-color:#FFFFFF;stop-opacity:0.6011"/>
		<stop  offset="0.8394" style="stop-color:#FFFFFF;stop-opacity:0.7"/>
	</radialGradient>
	<path class="st60" d="M150.6,27.3c0,6-2.2,11.4-5.8,15.3c-3.6,3.9-8.5,6.4-14,6.4h-25.1V5.6h25.1C141.7,5.6,150.6,15.3,150.6,27.3z
		"/>
</g>
</svg>
