<?xml version="1.0" encoding="utf-8"?>
<!-- Generator: Adobe Illustrator 22.0.0, SVG Export Plug-In . SVG Version: 6.00 Build 0)  -->
<svg version="1.1" id="shap-web-des" xmlns="http://www.w3.org/2000/svg" xmlns:xlink="http://www.w3.org/1999/xlink" x="0px"
	 y="0px" viewBox="0 0 476.5 577.6" style="enable-background:new 0 0 476.5 577.6;" xml:space="preserve">
<style type="text/css">
	.st0{fill:url(#SVGID_1_);}
</style>
<linearGradient id="SVGID_1_" gradientUnits="userSpaceOnUse" x1="9972.4863" y1="-426.2431" x2="9209.3721" y2="-606.5752" gradientTransform="matrix(-0.9846 0.1746 0.1746 0.9846 9915.5098 -908.5966)">
	<stop  offset="0" style="stop-color:#FF431D"/>
	<stop  offset="8.598369e-02" style="stop-color:#DF4039"/>
	<stop  offset="0.2795" style="stop-color:#9C3A75"/>
	<stop  offset="0.4635" style="stop-color:#6434A6"/>
	<stop  offset="0.6325" style="stop-color:#3930CC"/>
	<stop  offset="0.7835" style="stop-color:#1A2DE8"/>
	<stop  offset="0.9111" style="stop-color:#072CF9"/>
	<stop  offset="1" style="stop-color:#002BFF"/>
</linearGradient>
<path class="st0" d="M233.6,6.7C225,5.1,85.6-5,23,108.6C-4.9,159.1,2.7,220.9,6.5,252.2c18.1,147.7,129.8,236.6,147.4,250.6
	c161.2,128.5,412.6,69,438.3-33.2c15.8-63-76-82.5-76.3-204.6c-0.2-91.1,54.3-142,27.6-231.2c-4.2-14.2-28-39.6-43.2-39.3
	C469.5-4.7,453.9,45,393.6,48.7C344.6,51.7,294.7,17.7,233.6,6.7z"/>
</svg>
