<?xml version="1.0" encoding="utf-8"?>
<!-- Generator: Adobe Illustrator 22.0.0, SVG Export Plug-In . SVG Version: 6.00 Build 0)  -->
<svg version="1.1" id="text-web-des" xmlns="http://www.w3.org/2000/svg" xmlns:xlink="http://www.w3.org/1999/xlink" x="0px"
	 y="0px" viewBox="0 0 287.7 279" style="enable-background:new 0 0 287.7 279;" xml:space="preserve">
<style type="text/css">
	.st0{fill:#4AA2FF;}
	.st1{font-family:'MyriadPro-Regular';}
	.st2{font-size:28.1666px;}
	.st3{font-size:32.8743px;}
	.st4{fill:#D1DBFA;}
	.st5{fill:none;}
	.st6{fill:#A8A8A8;}
	.st7{font-size:7.6801px;}
</style>
<g>
	<text transform="matrix(1.1 0 0 1 8.496094e-02 89.666)"><tspan x="0" y="0" class="st0 st1 st2">Web</tspan><tspan x="0" y="31.4" class="st0 st1 st3">Design</tspan></text>
	<g>
		<circle class="st4" cx="55.4" cy="143.2" r="1.5"/>
		<path class="st4" d="M67,143.2c0,0.8-0.7,1.5-1.5,1.5c-0.8,0-1.5-0.7-1.5-1.5c0-0.8,0.7-1.5,1.5-1.5C66.3,141.7,67,142.3,67,143.2
			z"/>
		<path class="st4" d="M77.1,143.2c0,0.8-0.7,1.5-1.5,1.5c-0.8,0-1.5-0.7-1.5-1.5c0-0.8,0.7-1.5,1.5-1.5
			C76.4,141.7,77.1,142.3,77.1,143.2z"/>
	</g>
	<g>
		<circle class="st4" cx="76.8" cy="1.5" r="1.5"/>
		<path class="st4" d="M88.3,1.5c0,0.8-0.7,1.5-1.5,1.5c-0.8,0-1.5-0.7-1.5-1.5S86,0,86.8,0C87.7,0,88.3,0.7,88.3,1.5z"/>
		<path class="st4" d="M98.4,1.5c0,0.8-0.7,1.5-1.5,1.5c-0.8,0-1.5-0.7-1.5-1.5S96,0,96.9,0C97.7,0,98.4,0.7,98.4,1.5z"/>
	</g>
	<g>
		<rect x="0" y="167.2" class="st5" width="286.7" height="111.8"/>
		<text transform="matrix(0.9 0 0 1 0 172.6646)"><tspan x="0" y="0" class="st6 st1 st7">Building a great, well designed, responsive website can unlock enormous revenue potential for </tspan><tspan x="0" y="11.6" class="st6 st1 st7">your business – and we are here to help.</tspan><tspan x="0" y="34.9" class="st6 st1 st7">Powerful, effective web design is so much more than a nice looking design that’s easy on the eyes. </tspan><tspan x="0" y="46.6" class="st6 st1 st7">Our responsive designs make different sites for mobile, tablets, and laptops a thing of the past. </tspan><tspan x="0" y="58.2" class="st6 st1 st7">Simplify your business operations and allow your visitors to interact fluently on various devices.</tspan><tspan x="0" y="81.5" class="st6 st1 st7">Our skilled team of web developers keep up with the latest technologies so that we can provide </tspan><tspan x="0" y="93.1" class="st6 st1 st7">you with advanced, custom and open source solutions which will propel your business to the next </tspan><tspan x="0" y="104.8" class="st6 st1 st7">level.</tspan></text>
	</g>
</g>
</svg>
