<?xml version="1.0" encoding="utf-8"?>
<!-- Generator: Adobe Illustrator 22.0.0, SVG Export Plug-In . SVG Version: 6.00 Build 0)  -->
<svg version="1.1" id="text-web-des" xmlns="http://www.w3.org/2000/svg" xmlns:xlink="http://www.w3.org/1999/xlink" x="0px"
	 y="0px" viewBox="0 0 286.7 213.3" style="enable-background:new 0 0 286.7 213.3;" xml:space="preserve">
<style type="text/css">
	.st0{fill:#4AA2FF;}
	.st1{font-family:'MyriadPro-Regular';}
	.st2{font-size:28.1666px;}
	.st3{font-size:32.8743px;}
	.st4{fill:#D1DBFA;}
	.st5{fill:none;}
	.st6{fill:#A8A8A8;}
	.st7{font-size:7.6801px;}
</style>
<g>
	<text transform="matrix(1.1 0 0 1 8.496094e-02 23.5757)" class="st0 st1 st2">Web</text>
	<text transform="matrix(1.1 0 0 1 8.496094e-02 54.9756)" class="st0 st1 st3">Design</text>
	<g>
		<circle class="st4" cx="55.4" cy="77.1" r="1.5"/>
		<path class="st4" d="M67,77.1c0,0.8-0.7,1.5-1.5,1.5S64,77.9,64,77.1s0.7-1.5,1.5-1.5S67,76.2,67,77.1z"/>
		<path class="st4" d="M77.1,77.1c0,0.8-0.7,1.5-1.5,1.5s-1.5-0.7-1.5-1.5s0.7-1.5,1.5-1.5S77.1,76.2,77.1,77.1z"/>
	</g>
	<g>
		<rect y="101.1" class="st5" width="286.7" height="111.8"/>
		<text transform="matrix(0.9 0 0 1 0 106.5747)" class="st6 st1 st7">Building a great, well designed, responsive website can unlock enormous revenue potential for </text>
		<text transform="matrix(0.9 0 0 1 0 118.1743)" class="st6 st1 st7">your business – and we are here to help.</text>
		<text transform="matrix(0.9 0 0 1 0 141.4741)" class="st6 st1 st7">Powerful, effective web design is so much more than a nice looking design that’s easy on the eyes. </text>
		<text transform="matrix(0.9 0 0 1 0 153.1743)" class="st6 st1 st7">Our responsive designs make different sites for mobile, tablets, and laptops a thing of the past. </text>
		<text transform="matrix(0.9 0 0 1 0 164.7739)" class="st6 st1 st7">Simplify your business operations and allow your visitors to interact fluently on various devices.</text>
		<text transform="matrix(0.9 0 0 1 0 188.0747)" class="st6 st1 st7">Our skilled team of web developers keep up with the latest technologies so that we can provide </text>
		<text transform="matrix(0.9 0 0 1 0 199.6743)" class="st6 st1 st7">you with advanced, custom and open source solutions which will propel your business to the next </text>
		<text transform="matrix(0.9 0 0 1 0 211.3745)" class="st6 st1 st7">level.</text>
	</g>
</g>
</svg>
